<?xml version="1.0" encoding="UTF-8"?>
<svg xmlns="http://www.w3.org/2000/svg" xmlns:xlink="http://www.w3.org/1999/xlink" width="0" height="0">
<defs>
<symbol class="lucide lucide-arrow-down" viewBox="0 0 24 24" fill="none" stroke="currentColor" stroke-width="2" stroke-linecap="round" stroke-linejoin="round" id="ArrowDown">
  <path d="M12 5v14" ></path>
  <path d="m19 12-7 7-7-7" ></path>
</symbol>
<symbol class="lucide lucide-arrow-left" viewBox="0 0 24 24" fill="none" stroke="currentColor" stroke-width="2" stroke-linecap="round" stroke-linejoin="round" id="ArrowLeft">
  <path d="m12 19-7-7 7-7" ></path>
  <path d="M19 12H5" ></path>
</symbol>
<symbol class="lucide lucide-arrow-right" viewBox="0 0 24 24" fill="none" stroke="currentColor" stroke-width="2" stroke-linecap="round" stroke-linejoin="round" id="ArrowRight">
  <path d="M5 12h14" ></path>
  <path d="m12 5 7 7-7 7" ></path>
</symbol>
<symbol class="lucide lucide-arrow-up" viewBox="0 0 24 24" fill="none" stroke="currentColor" stroke-width="2" stroke-linecap="round" stroke-linejoin="round" id="ArrowUp">
  <path d="m5 12 7-7 7 7" ></path>
  <path d="M12 19V5" ></path>
</symbol>
<symbol class="lucide lucide-badge-check" viewBox="0 0 24 24" fill="none" stroke="currentColor" stroke-width="2" stroke-linecap="round" stroke-linejoin="round" id="BadgeCheck">
  <path d="M3.85 8.62a4 4 0 0 1 4.78-4.77 4 4 0 0 1 6.74 0 4 4 0 0 1 4.78 4.78 4 4 0 0 1 0 6.74 4 4 0 0 1-4.77 4.78 4 4 0 0 1-6.75 0 4 4 0 0 1-4.78-4.77 4 4 0 0 1 0-6.76Z" ></path>
  <path d="m9 12 2 2 4-4" ></path>
</symbol>
<symbol class="lucide lucide-calendar" viewBox="0 0 24 24" fill="none" stroke="currentColor" stroke-width="2" stroke-linecap="round" stroke-linejoin="round" id="Calendar">
  <path d="M8 2v4" ></path>
  <path d="M16 2v4" ></path>
  <rect width="18" height="18" x="3" y="4" rx="2" ></rect>
  <path d="M3 10h18" ></path>
</symbol>
<symbol class="lucide lucide-check" viewBox="0 0 24 24" fill="none" stroke="currentColor" stroke-width="2" stroke-linecap="round" stroke-linejoin="round" id="Check">
  <path d="M20 6 9 17l-5-5" ></path>
</symbol>
<symbol class="lucide lucide-chevrons-down-up" viewBox="0 0 24 24" fill="none" stroke="currentColor" stroke-width="2" stroke-linecap="round" stroke-linejoin="round" id="ChevronsDownUp">
  <path d="m7 20 5-5 5 5" ></path>
  <path d="m7 4 5 5 5-5" ></path>
</symbol>
<symbol class="lucide lucide-chevrons-up-down" viewBox="0 0 24 24" fill="none" stroke="currentColor" stroke-width="2" stroke-linecap="round" stroke-linejoin="round" id="ChevronsUpDown">
  <path d="m7 15 5 5 5-5" ></path>
  <path d="m7 9 5-5 5 5" ></path>
</symbol>
<symbol class="lucide lucide-chevron-down" viewBox="0 0 24 24" fill="none" stroke="currentColor" stroke-width="2" stroke-linecap="round" stroke-linejoin="round" id="ChevronDown">
  <path d="m6 9 6 6 6-6" ></path>
</symbol>
<symbol class="lucide lucide-chevron-left" viewBox="0 0 24 24" fill="none" stroke="currentColor" stroke-width="2" stroke-linecap="round" stroke-linejoin="round" id="ChevronLeft">
  <path d="m15 18-6-6 6-6" ></path>
</symbol>
<symbol class="lucide lucide-chevron-right" viewBox="0 0 24 24" fill="none" stroke="currentColor" stroke-width="2" stroke-linecap="round" stroke-linejoin="round" id="ChevronRight">
  <path d="m9 18 6-6-6-6" ></path>
</symbol>
<symbol class="lucide lucide-chevron-up" viewBox="0 0 24 24" fill="none" stroke="currentColor" stroke-width="2" stroke-linecap="round" stroke-linejoin="round" id="ChevronUp">
  <path d="m18 15-6-6-6 6" ></path>
</symbol>
<symbol class="lucide lucide-circle-alert" viewBox="0 0 24 24" fill="none" stroke="currentColor" stroke-width="2" stroke-linecap="round" stroke-linejoin="round" id="CircleAlert">
  <circle cx="12" cy="12" r="10" ></circle>
  <line x1="12" x2="12" y1="8" y2="12" ></line>
  <line x1="12" x2="12.01" y1="16" y2="16" ></line>
</symbol>
<symbol class="lucide lucide-circle-check" viewBox="0 0 24 24" fill="none" stroke="currentColor" stroke-width="2" stroke-linecap="round" stroke-linejoin="round" id="CircleCheck">
  <circle cx="12" cy="12" r="10" ></circle>
  <path d="m9 12 2 2 4-4" ></path>
</symbol>
<symbol class="lucide lucide-circle-question-mark" viewBox="0 0 24 24" fill="none" stroke="currentColor" stroke-width="2" stroke-linecap="round" stroke-linejoin="round" id="CircleQuestionMark">
  <circle cx="12" cy="12" r="10" ></circle>
  <path d="M9.09 9a3 3 0 0 1 5.83 1c0 2-3 3-3 3" ></path>
  <path d="M12 17h.01" ></path>
</symbol>
<symbol class="lucide lucide-circle-small" viewBox="0 0 24 24" fill="none" stroke="currentColor" stroke-width="2" stroke-linecap="round" stroke-linejoin="round" id="CircleSmall">
  <circle cx="12" cy="12" r="6" ></circle>
</symbol>
<symbol class="lucide lucide-circle" viewBox="0 0 24 24" fill="none" stroke="currentColor" stroke-width="2" stroke-linecap="round" stroke-linejoin="round" id="Circle">
  <circle cx="12" cy="12" r="10" ></circle>
</symbol>
<symbol class="lucide lucide-dot" viewBox="0 0 24 24" fill="none" stroke="currentColor" stroke-width="2" stroke-linecap="round" stroke-linejoin="round" id="Dot">
  <circle cx="12.1" cy="12.1" r="1" ></circle>
</symbol>
<symbol class="lucide lucide-ellipsis-vertical" viewBox="0 0 24 24" fill="none" stroke="currentColor" stroke-width="2" stroke-linecap="round" stroke-linejoin="round" id="EllipsisVertical">
  <circle cx="12" cy="12" r="1" ></circle>
  <circle cx="12" cy="5" r="1" ></circle>
  <circle cx="12" cy="19" r="1" ></circle>
</symbol>
<symbol class="lucide lucide-ellipsis" viewBox="0 0 24 24" fill="none" stroke="currentColor" stroke-width="2" stroke-linecap="round" stroke-linejoin="round" id="Ellipsis">
  <circle cx="12" cy="12" r="1" ></circle>
  <circle cx="19" cy="12" r="1" ></circle>
  <circle cx="5" cy="12" r="1" ></circle>
</symbol>
<symbol class="lucide lucide-house" viewBox="0 0 24 24" fill="none" stroke="currentColor" stroke-width="2" stroke-linecap="round" stroke-linejoin="round" id="House">
  <path d="M15 21v-8a1 1 0 0 0-1-1h-4a1 1 0 0 0-1 1v8" ></path>
  <path d="M3 10a2 2 0 0 1 .709-1.528l7-6a2 2 0 0 1 2.582 0l7 6A2 2 0 0 1 21 10v9a2 2 0 0 1-2 2H5a2 2 0 0 1-2-2z" ></path>
</symbol>
<symbol class="lucide lucide-info" viewBox="0 0 24 24" fill="none" stroke="currentColor" stroke-width="2" stroke-linecap="round" stroke-linejoin="round" id="Info">
  <circle cx="12" cy="12" r="10" ></circle>
  <path d="M12 16v-4" ></path>
  <path d="M12 8h.01" ></path>
</symbol>
<symbol class="lucide lucide-loader-circle" viewBox="0 0 24 24" fill="none" stroke="currentColor" stroke-width="2" stroke-linecap="round" stroke-linejoin="round" id="LoaderCircle">
  <path d="M21 12a9 9 0 1 1-6.219-8.56" ></path>
</symbol>
<symbol class="lucide lucide-loader" viewBox="0 0 24 24" fill="none" stroke="currentColor" stroke-width="2" stroke-linecap="round" stroke-linejoin="round" id="Loader">
  <path d="M12 2v4" ></path>
  <path d="m16.2 7.8 2.9-2.9" ></path>
  <path d="M18 12h4" ></path>
  <path d="m16.2 16.2 2.9 2.9" ></path>
  <path d="M12 18v4" ></path>
  <path d="m4.9 19.1 2.9-2.9" ></path>
  <path d="M2 12h4" ></path>
  <path d="m4.9 4.9 2.9 2.9" ></path>
</symbol>
<symbol class="lucide lucide-moon" viewBox="0 0 24 24" fill="none" stroke="currentColor" stroke-width="2" stroke-linecap="round" stroke-linejoin="round" id="Moon">
  <path d="M20.985 12.486a9 9 0 1 1-9.473-9.472c.405-.022.617.46.402.803a6 6 0 0 0 8.268 8.268c.344-.215.825-.004.803.401" ></path>
</symbol>
<symbol class="lucide lucide-panel-bottom" viewBox="0 0 24 24" fill="none" stroke="currentColor" stroke-width="2" stroke-linecap="round" stroke-linejoin="round" id="PanelBottom">
  <rect width="18" height="18" x="3" y="3" rx="2" ></rect>
  <path d="M3 15h18" ></path>
</symbol>
<symbol class="lucide lucide-panel-left" viewBox="0 0 24 24" fill="none" stroke="currentColor" stroke-width="2" stroke-linecap="round" stroke-linejoin="round" id="PanelLeft">
  <rect width="18" height="18" x="3" y="3" rx="2" ></rect>
  <path d="M9 3v18" ></path>
</symbol>
<symbol class="lucide lucide-panel-right" viewBox="0 0 24 24" fill="none" stroke="currentColor" stroke-width="2" stroke-linecap="round" stroke-linejoin="round" id="PanelRight">
  <rect width="18" height="18" x="3" y="3" rx="2" ></rect>
  <path d="M15 3v18" ></path>
</symbol>
<symbol class="lucide lucide-panel-top" viewBox="0 0 24 24" fill="none" stroke="currentColor" stroke-width="2" stroke-linecap="round" stroke-linejoin="round" id="PanelTop">
  <rect width="18" height="18" x="3" y="3" rx="2" ></rect>
  <path d="M3 9h18" ></path>
</symbol>
<symbol class="lucide lucide-search" viewBox="0 0 24 24" fill="none" stroke="currentColor" stroke-width="2" stroke-linecap="round" stroke-linejoin="round" id="Search">
  <path d="m21 21-4.34-4.34" ></path>
  <circle cx="11" cy="11" r="8" ></circle>
</symbol>
<symbol class="lucide lucide-slash" viewBox="0 0 24 24" fill="none" stroke="currentColor" stroke-width="2" stroke-linecap="round" stroke-linejoin="round" id="Slash">
  <path d="M22 2 2 22" ></path>
</symbol>
<symbol class="lucide lucide-sun" viewBox="0 0 24 24" fill="none" stroke="currentColor" stroke-width="2" stroke-linecap="round" stroke-linejoin="round" id="Sun">
  <circle cx="12" cy="12" r="4" ></circle>
  <path d="M12 2v2" ></path>
  <path d="M12 20v2" ></path>
  <path d="m4.93 4.93 1.41 1.41" ></path>
  <path d="m17.66 17.66 1.41 1.41" ></path>
  <path d="M2 12h2" ></path>
  <path d="M20 12h2" ></path>
  <path d="m6.34 17.66-1.41 1.41" ></path>
  <path d="m19.07 4.93-1.41 1.41" ></path>
</symbol>
<symbol class="lucide lucide-trash-2" viewBox="0 0 24 24" fill="none" stroke="currentColor" stroke-width="2" stroke-linecap="round" stroke-linejoin="round" id="Trash2">
  <path d="M10 11v6" ></path>
  <path d="M14 11v6" ></path>
  <path d="M19 6v14a2 2 0 0 1-2 2H7a2 2 0 0 1-2-2V6" ></path>
  <path d="M3 6h18" ></path>
  <path d="M8 6V4a2 2 0 0 1 2-2h4a2 2 0 0 1 2 2v2" ></path>
</symbol>
<symbol class="lucide lucide-user-round" viewBox="0 0 24 24" fill="none" stroke="currentColor" stroke-width="2" stroke-linecap="round" stroke-linejoin="round" id="UserRound">
  <circle cx="12" cy="8" r="5" ></circle>
  <path d="M20 21a8 8 0 0 0-16 0" ></path>
</symbol>
<symbol class="lucide lucide-x" viewBox="0 0 24 24" fill="none" stroke="currentColor" stroke-width="2" stroke-linecap="round" stroke-linejoin="round" id="X">
  <path d="M18 6 6 18" ></path>
  <path d="m6 6 12 12" ></path>
</symbol>
</defs>
</svg>