<?xml version="1.0" encoding="UTF-8"?>
<svg xmlns="http://www.w3.org/2000/svg" xmlns:xlink="http://www.w3.org/1999/xlink" width="0" height="0">
<defs>
<symbol class="lucide lucide-app-window" viewBox="0 0 24 24" fill="none" stroke="currentColor" stroke-width="2" stroke-linecap="round" stroke-linejoin="round" id="AppWindow">
  <rect x="2" y="4" width="20" height="16" rx="2" ></rect>
  <path d="M10 4v4" ></path>
  <path d="M2 8h20" ></path>
  <path d="M6 4v4" ></path>
</symbol>
<symbol class="lucide lucide-bold" viewBox="0 0 24 24" fill="none" stroke="currentColor" stroke-width="2" stroke-linecap="round" stroke-linejoin="round" id="Bold">
  <path d="M6 12h9a4 4 0 0 1 0 8H7a1 1 0 0 1-1-1V5a1 1 0 0 1 1-1h7a4 4 0 0 1 0 8" ></path>
</symbol>
<symbol class="lucide lucide-file-code-2" viewBox="0 0 24 24" fill="none" stroke="currentColor" stroke-width="2" stroke-linecap="round" stroke-linejoin="round" id="FileCode2">
  <path d="M4 22h14a2 2 0 0 0 2-2V7l-5-5H6a2 2 0 0 0-2 2v4" ></path>
  <path d="M14 2v4a2 2 0 0 0 2 2h4" ></path>
  <path d="m5 12-3 3 3 3" ></path>
  <path d="m9 18 3-3-3-3" ></path>
</symbol>
<symbol class="lucide lucide-italic" viewBox="0 0 24 24" fill="none" stroke="currentColor" stroke-width="2" stroke-linecap="round" stroke-linejoin="round" id="Italic">
  <line x1="19" x2="10" y1="4" y2="4" ></line>
  <line x1="14" x2="5" y1="20" y2="20" ></line>
  <line x1="15" x2="9" y1="4" y2="20" ></line>
</symbol>
<symbol class="lucide lucide-popcorn" viewBox="0 0 24 24" fill="none" stroke="currentColor" stroke-width="2" stroke-linecap="round" stroke-linejoin="round" id="Popcorn">
  <path d="M18 8a2 2 0 0 0 0-4 2 2 0 0 0-4 0 2 2 0 0 0-4 0 2 2 0 0 0-4 0 2 2 0 0 0 0 4" ></path>
  <path d="M10 22 9 8" ></path>
  <path d="m14 22 1-14" ></path>
  <path d="M20 8c.5 0 .9.4.8 1l-2.6 12c-.1.5-.7 1-1.2 1H7c-.6 0-1.1-.4-1.2-1L3.2 9c-.1-.6.3-1 .8-1Z" ></path>
</symbol>
<symbol class="lucide lucide-underline" viewBox="0 0 24 24" fill="none" stroke="currentColor" stroke-width="2" stroke-linecap="round" stroke-linejoin="round" id="Underline">
  <path d="M6 4v6a6 6 0 0 0 12 0V4" ></path>
  <line x1="4" x2="20" y1="20" y2="20" ></line>
</symbol>
</defs>
</svg>